Patient4_TMGait_0pt7_02_right_24_GRF.mot
version=1
nRows=65
nColumns=19
inDegrees=no
endheader
time	F1x	F1y	F1z	M1x	M1y	M1z	F2x	F2y	F2z	M2x	M2y	M2z	EC1x	EC1y	EC1z	EC2x	EC2y	EC2z
26.73	-28.0633	753.5059	60.3844	-264.574	-74.0457	820.1508	-10.5752	3.3956	-16.1279	6.4089	7.7603	20.8179	-0.0592	0.0182	-0.0073	-0.0462	0.0165	0.9585
26.7415	-21.8134	751.1841	63.5297	-263.7919	-75.0637	818.3102	-7.1052	2.9959	-10.9699	4.6359	5.3198	14.7305	-0.0592	0.0182	-0.0073	-0.0462	0.0165	0.9585
26.753	-16.2818	749.1842	66.1417	-263.047	-75.6322	815.6276	-4.2572	2.7805	-6.5628	3.1609	3.2434	9.7918	-0.0592	0.0182	-0.0073	-0.0462	0.0165	0.9585
26.7645	-11.7389	747.666	68.0431	-262.3996	-75.669	812.2171	-2.1188	2.6904	-3.1825	2.0578	1.6505	6.1551	-0.0592	0.0182	-0.0073	-0.0462	0.0165	0.9585
26.776	-8.1865	746.6223	69.1934	-261.8674	-75.1604	808.2093	-0.70251	2.7258	-0.8279	1.3238	0.54899	3.8138	-0.0592	0.0182	-0.0073	-0.0462	0.0165	0.9585
26.7875	-5.4893	745.9141	69.6492	-261.4246	-74.1543	803.6625	0.14865	2.8028	0.64307	0.88765	-0.13722	2.4734	-0.0592	0.0182	-0.0073	-0.0462	0.0165	0.9585
26.799	-3.4334	745.3186	69.5604	-261.0138	-72.7614	798.5789	0.53038	2.8944	1.4332	0.67093	-0.48689	1.8956	-0.0592	0.0182	-0.0073	-0.0462	0.0165	0.9585
26.8105	-1.7721	744.6029	69.0009	-260.5764	-71.0119	792.8954	0.62598	2.8989	1.7394	0.57416	-0.59819	1.6942	-0.0592	0.0182	-0.0073	-0.0462	0.0165	0.9585
26.822	-0.30027	743.58	68.1284	-260.0606	-69.0101	786.5613	0.50614	2.7558	1.7367	0.51406	-0.54196	1.6073	-0.0592	0.0182	-0.0073	-0.0462	0.0165	0.9585
26.8335	1.2243	742.1365	66.9678	-259.4365	-66.7199	779.5438	0.31106	2.3334	1.5553	0.40089	-0.38907	1.3012	-0.0592	0.0182	-0.0073	-0.0462	0.0165	0.9585
26.845	2.9698	740.2494	65.6428	-258.6911	-64.2068	771.8966	0.061972	1.5451	1.2893	0.16508	-0.17958	0.59218	-0.0592	0.0182	-0.0073	-0.0462	0.0165	0.9585
26.8565	5.1138	737.9834	64.1768	-257.8371	-61.4429	763.7229	-0.13752	0.25328	0.99446	-0.264	0.045137	-0.76626	-0.0592	0.0182	-0.0073	-0.0462	0.0165	0.9585
26.868	7.7721	735.4858	62.6882	-256.8996	-58.5048	755.2264	-0.28944	-1.6023	0.71693	-0.92515	0.25558	-2.8631	-0.0592	0.0182	-0.0073	-0.0462	0.0165	0.9585
26.8795	11.0422	732.9398	61.2773	-255.9092	-55.4618	746.6284	-0.29457	-4.0361	0.4824	-1.8265	0.40053	-5.7491	-0.0592	0.0182	-0.0073	-0.0462	0.0165	0.9585
26.891	14.9501	730.5668	60.0921	-254.9	-52.4448	738.2131	-0.14236	-6.8776	0.3113	-2.9052	0.43937	-9.1781	-0.0592	0.0182	-0.0073	-0.0462	0.0165	0.9585
26.9025	19.4902	728.5865	59.2755	-253.9093	-49.5926	730.2497	0.28536	-9.7722	0.22994	-4.0144	0.29494	-12.7183	-0.0592	0.0182	-0.0073	-0.0462	0.0165	0.9585
26.914	24.5647	727.1979	58.9188	-252.9771	-47.0133	722.9885	1.0147	-11.9855	0.27824	-4.8636	-0.10776	-15.4443	-0.0592	0.0182	-0.0073	-0.0462	0.0165	0.9585
26.9255	30.0451	726.5404	59.0793	-252.1393	-44.7991	716.622	2.1591	-12.4073	0.50173	-5.0054	-0.86233	-16.0006	-0.0592	0.0182	-0.0073	-0.0462	0.0165	0.9585
26.937	35.7195	726.6483	59.71	-251.4191	-42.9706	711.237	3.706	-9.3509	0.96949	-3.776	-2.0467	-12.2862	-0.0592	0.0182	-0.0073	-0.0462	0.0165	0.9585
26.9485	41.3552	727.4341	60.7173	-250.8173	-41.5155	706.7931	5.6491	-0.67364	1.7243	-0.32253	-3.6973	-1.6942	-0.0592	0.0182	-0.0073	-0.0462	0.0165	0.9585
26.96	46.7178	728.5877	61.9329	-250.2731	-40.3536	703.0451	7.7752	16.2164	2.8166	6.3749	-5.7777	18.9635	-0.0592	0.0182	-0.0073	-0.0462	0.0165	0.9585
26.9715	51.6076	729.4737	63.1546	-249.623	-39.3677	699.4067	9.7362	43.9074	4.2404	17.3394	-8.1151	52.831	-0.0592	0.0182	-0.0073	-0.0462	0.0165	0.9585
26.983	55.8862	729.0514	64.1251	-248.5678	-38.3766	694.9047	10.8267	84.4621	5.9261	33.371	-10.3209	102.4596	-0.0592	0.0182	-0.0073	-0.0462	0.0165	0.9585
26.9945	59.4775	725.7748	64.5367	-246.6388	-37.137	688.0782	10.0666	138.26	7.6627	54.6118	-11.725	168.313	-0.0592	0.0182	-0.0073	-0.0462	0.0165	0.9585
27.006	62.2897	717.6332	64.0724	-243.2025	-35.4062	677.0435	6.0649	202.6887	9.0223	80.0116	-11.2779	247.2333	-0.0592	0.0182	-0.0073	-0.0462	0.0165	0.9585
27.0175	64.2007	702.3594	62.4297	-237.5289	-32.9686	659.704	-2.0384	270.9143	9.4116	106.8477	-7.965	330.8751	-0.0592	0.0182	-0.0073	-0.0462	0.0165	0.9585
27.029	65.0368	677.9234	59.4519	-228.9481	-29.7674	634.2109	-12.9087	332.8989	7.6756	131.0928	-1.0082	406.9568	-0.0592	0.0182	-0.0073	-0.0462	0.0165	0.9585
27.0405	64.6053	643.1036	55.1846	-217.0436	-25.9327	599.4686	-24.018	380.4352	2.9513	149.4838	9.3853	465.2402	-0.0592	0.0182	-0.0073	-0.0462	0.0165	0.9585
27.052	62.7931	598.0513	49.931	-201.8196	-21.7869	555.6905	-33.7499	412.7217	-3.7567	161.6602	21.5045	504.4702	-0.0592	0.0182	-0.0073	-0.0462	0.0165	0.9585
27.0635	59.6383	544.0106	44.2172	-183.64	-17.7722	504.0528	-41.2327	433.8066	-12.1636	169.2076	34.5883	529.5027	-0.0592	0.0182	-0.0073	-0.0462	0.0165	0.9585
27.075	55.2736	483.1264	38.5183	-163.1674	-14.2442	446.5479	-46.3619	449.5224	-20.8216	174.4853	47.0043	547.4014	-0.0592	0.0182	-0.0073	-0.0462	0.0165	0.9585
27.0865	49.8157	417.9535	33.1136	-141.2254	-11.3933	385.5225	-49.4707	465.0561	-29.1701	179.5748	58.178	564.5301	-0.0592	0.0182	-0.0073	-0.0462	0.0165	0.9585
27.098	43.3635	351.3498	28.0965	-118.7553	-9.2597	323.5943	-51.0414	483.86	-36.4815	185.894	67.481	585.0748	-0.0592	0.0182	-0.0073	-0.0462	0.0165	0.9585
27.1095	36.1344	286.1652	23.4781	-96.7197	-7.7736	263.331	-51.4418	507.8343	-42.7864	194.1807	75.0802	611.3042	-0.0592	0.0182	-0.0073	-0.0462	0.0165	0.9585
27.121	28.5131	225.1142	19.2521	-76.0461	-6.7928	207.1486	-50.9957	537.5167	-48.4683	204.6115	81.5199	643.8826	-0.0592	0.0182	-0.0073	-0.0462	0.0165	0.9585
27.1325	21.0637	170.4084	15.4679	-57.4997	-6.1544	156.964	-49.9493	571.9098	-53.8513	216.752	87.2922	681.6608	-0.0592	0.0182	-0.0073	-0.0462	0.0165	0.9585
27.144	14.3442	123.457	12.1732	-41.5742	-5.6899	113.9731	-48.6735	608.6323	-59.4713	229.6383	93.0848	721.9153	-0.0592	0.0182	-0.0073	-0.0462	0.0165	0.9585
27.1555	8.7179	84.8344	9.3448	-28.479	-5.2361	78.6155	-47.4313	644.7855	-65.14	242.1561	98.828	761.2868	-0.0592	0.0182	-0.0073	-0.0462	0.0165	0.9585
27.167	4.3038	54.3915	6.9345	-18.1735	-4.7006	50.734	-46.3366	677.9184	-70.9054	253.38	104.5804	796.9706	-0.0592	0.0182	-0.0073	-0.0462	0.0165	0.9585
27.1785	1.1289	31.5588	4.8914	-10.4637	-4.0339	29.7952	-45.338	706.4197	-76.2362	262.7559	109.7854	827.0611	-0.0592	0.0182	-0.0073	-0.0462	0.0165	0.9585
27.19	-0.85553	15.4792	3.1826	-5.0517	-3.2316	15.0342	-44.3859	729.3157	-81.0624	269.973	114.3184	850.4811	-0.0592	0.0182	-0.0073	-0.0462	0.0165	0.9585
27.2015	-1.7969	5.1095	1.8245	-1.5776	-2.3715	5.4887	-43.366	746.1952	-84.9568	274.9607	117.7034	866.7568	-0.0592	0.0182	-0.0073	-0.0462	0.0165	0.9585
27.213	-2.0571	-0.7409	0.86409	0.3687	-1.6173	0.091687	-42.264	757.0692	-87.8662	277.7886	119.8728	875.9502	-0.0592	0.0182	-0.0073	-0.0462	0.0165	0.9585
27.2245	-1.8867	-3.3704	0.27999	1.2266	-1.0442	-2.3552	-41.0433	762.292	-89.6692	278.6607	120.7086	878.4864	-0.0592	0.0182	-0.0073	-0.0462	0.0165	0.9585
27.236	-1.5302	-3.8984	-0.039437	1.3755	-0.63323	-2.8686	-39.7317	762.6222	-90.4319	277.9059	120.3175	875.2685	-0.0592	0.0182	-0.0073	-0.0462	0.0165	0.9585
27.2475	-1.0996	-3.2419	-0.14045	1.1244	-0.3911	-2.3114	-38.3532	759.1263	-90.3083	275.9623	118.899	867.4854	-0.0592	0.0182	-0.0073	-0.0462	0.0165	0.9585
27.259	-0.70634	-2.0278	-0.13905	0.68532	-0.24846	-1.2328	-36.9073	753.1717	-89.4606	273.3545	116.6633	856.6447	-0.0592	0.0182	-0.0073	-0.0462	0.0165	0.9585
27.2705	-0.36613	-0.68216	-0.062917	0.20461	-0.19656	-0.030466	-35.3814	746.1402	-88.1319	270.6095	113.8827	844.2377	-0.0592	0.0182	-0.0073	-0.0462	0.0165	0.9585
27.282	-0.11834	0.57849	0.022326	-0.24077	-0.18662	1.1233	-33.7283	739.4558	-86.3715	268.2578	110.6229	831.7784	-0.0592	0.0182	-0.0073	-0.0462	0.0165	0.9585
27.2935	0.072034	1.6302	0.1027	-0.60776	-0.19925	2.1069	-31.835	734.2791	-84.3245	266.7239	107.0011	820.4601	-0.0592	0.0182	-0.0073	-0.0462	0.0165	0.9585
27.305	0.17801	2.4629	0.16727	-0.88953	-0.227	2.931	-29.5333	731.411	-81.9625	266.2988	102.9316	811.0435	-0.0592	0.0182	-0.0073	-0.0462	0.0165	0.9585
27.3165	0.24631	3.0783	0.2015	-1.0906	-0.24031	3.5697	-26.5842	731.3009	-79.4217	267.1276	98.4542	803.9021	-0.0592	0.0182	-0.0073	-0.0462	0.0165	0.9585
27.328	0.25313	3.523	0.23479	-1.2276	-0.26741	4.0772	-22.8006	734.0999	-76.7612	269.2439	93.5414	799.1132	-0.0592	0.0182	-0.0073	-0.0462	0.0165	0.9585
27.3395	0.23324	3.7993	0.25406	-1.3071	-0.2867	4.4166	-18.0758	739.7734	-74.1298	272.5921	88.2884	796.6414	-0.0592	0.0182	-0.0073	-0.0462	0.0165	0.9585
27.351	0.16586	3.9107	0.29344	-1.3293	-0.33932	4.5907	-12.4594	748.0012	-71.6388	276.9991	82.8133	796.2299	-0.0592	0.0182	-0.0073	-0.0462	0.0165	0.9585
27.3625	0.071941	3.8072	0.33946	-1.2804	-0.4134	4.494	-6.1646	758.0941	-69.3925	282.1371	77.2972	797.3298	-0.0592	0.0182	-0.0073	-0.0462	0.0165	0.9585
27.374	-0.079714	3.4263	0.40712	-1.1356	-0.53529	4.0547	0.49906	768.9304	-67.5425	287.5093	72.0054	799.0137	-0.0592	0.0182	-0.0073	-0.0462	0.0165	0.9585
27.3855	-0.26385	2.6536	0.4861	-0.85761	-0.6879	3.1269	7.1259	779.1008	-66.162	292.5156	67.1639	800.1105	-0.0592	0.0182	-0.0073	-0.0462	0.0165	0.9585
27.397	-0.48796	1.3848	0.56161	-0.40967	-0.85825	1.5987	13.3415	787.1251	-65.3306	296.5434	62.9975	799.3783	-0.0592	0.0182	-0.0073	-0.0462	0.0165	0.9585
27.4085	-0.70051	-0.47343	0.62358	0.23749	-1.0135	-0.64807	18.8243	791.7884	-64.9722	299.0991	59.5674	795.8283	-0.0592	0.0182	-0.0073	-0.0462	0.0165	0.9585
27.42	-0.88008	-2.9142	0.62472	1.0802	-1.0887	-3.5981	23.4122	792.2945	-65.0016	299.8695	56.876	788.8236	-0.0592	0.0182	-0.0073	-0.0462	0.0165	0.9585
27.4315	-0.95491	-5.8273	0.54808	2.0758	-1.0271	-7.1363	27.0563	788.4182	-65.2589	298.774	54.8038	778.2405	-0.0592	0.0182	-0.0073	-0.0462	0.0165	0.9585
27.443	-0.84209	-8.8384	0.3089	3.092	-0.70513	-10.8165	29.8617	780.4348	-65.6391	295.9364	53.228	764.3765	-0.0592	0.0182	-0.0073	-0.0462	0.0165	0.9585
27.4545	-0.41282	-11.2749	-0.12721	3.8917	-0.029279	-13.8435	31.9558	769.0303	-66.074	291.6427	52.0405	747.8913	-0.0592	0.0182	-0.0073	-0.0462	0.0165	0.9585
27.466	0.46931	-12.0029	-0.85367	4.0766	1.1541	-14.8422	33.543	755.1056	-66.5589	286.2618	51.1766	729.6077	-0.0592	0.0182	-0.0073	-0.0462	0.0165	0.9585
